<svg xmlns="http://www.w3.org/2000/svg" viewBox="0 0 192 192" fill="none">
  <rect width="192" height="192" rx="40" fill="#2d9e97"/>
  <path d="M96 40c-19.9 0-36 16.1-36 36 0 8.3 2.8 15.9 7.5 22H96v-8h-22c-3.1-4.1-5-9.2-5-14.7 0-13.3 10.7-24 24-24 4.5 0 8.7 1.2 12.3 3.4L110 48.7C106.1 43.5 101.4 40 96 40z" fill="white" opacity="0.3"/>
  <circle cx="96" cy="88" r="32" fill="white"/>
  <path d="M84 82c0-6.6 5.4-12 12-12s12 5.4 12 12c0 4.5-2.5 8.5-6.2 10.6L104 152H88l2.2-59.4C86.5 90.5 84 86.5 84 82z" fill="#2d9e97"/>
  <circle cx="80" cy="120" r="14" fill="white"/>
  <circle cx="112" cy="120" r="14" fill="white"/>
  <path d="M80 112c4.4 0 8 3.6 8 8s-3.6 8-8 8-8-3.6-8-8 3.6-8 8-8zM112 112c4.4 0 8 3.6 8 8s-3.6 8-8 8-8-3.6-8-8 3.6-8 8-8z" fill="#2d9e97"/>
</svg>
